# xmcd
#
# Track frame offsets:
#	150
#	13410
#	30860
#	45025
#
# Disc length: 787 seconds
#
# Revision: 0
# Processed by: cddbd v1.4PL0 Copyright (c) Steve Scherf et al.
# Submitted via: audiograbber 1.81.02
#
DISCID=1e031104
DTITLE=Hometown News - sampler
DYEAR=2002
DGENRE=Country
TTITLE0=Minivan
TTITLE1=Wheels
TTITLE2=Revitalize
TTITLE3=No Big Deal
EXTD=
EXTT0=
EXTT1=
EXTT2=
EXTT3=
PLAYORDER=
